<svg width="12" height="8" viewBox="0 0 12 8" fill="none" xmlns="http://www.w3.org/2000/svg">
<path d="M3.2 2.12C2.96 2.38 2.48 2.5 2.1 2.5H1.85V1.4H2.01C2.68 1.4 3.21 1.05 3.42 0.31H4.4V7.69H3.2V2.12Z" fill="currentColor"/>
<path d="M5.28 7.69L6.82 4.98L5.39 2.49H6.68L7.31 3.78C7.41 3.99 7.48 4.15 7.53 4.31H7.55C7.58 4.16 7.65 3.98 7.76 3.77L8.34 2.49H9.61L8.21 5.01L9.75 7.69H8.44L7.72 6.27C7.62 6.06 7.54 5.87 7.51 5.74H7.48C7.45 5.85 7.37 6.05 7.26 6.27L6.54 7.69H5.28Z" fill="currentColor"/>
</svg>
