<svg width="12" height="12" viewBox="0 0 12 12" fill="none" xmlns="http://www.w3.org/2000/svg">
<rect x="0" y="0" width="2.5" height="2.5" fill="currentColor"/>
<rect x="3.5" y="0" width="2.5" height="2.5" fill="currentColor"/>
<rect x="7" y="0" width="2.5" height="2.5" fill="currentColor"/>
<rect x="10.5" y="0" width="1.5" height="2.5" fill="currentColor"/>
<rect x="0" y="3.5" width="2.5" height="2.5" fill="currentColor"/>
<rect x="3.5" y="3.5" width="2.5" height="2.5" fill="currentColor"/>
<rect x="7" y="3.5" width="2.5" height="2.5" fill="currentColor"/>
<rect x="10.5" y="3.5" width="1.5" height="2.5" fill="currentColor"/>
<rect x="0" y="7" width="2.5" height="2.5" fill="currentColor"/>
<rect x="3.5" y="7" width="2.5" height="2.5" fill="currentColor"/>
<rect x="7" y="7" width="2.5" height="2.5" fill="currentColor"/>
<rect x="10.5" y="7" width="1.5" height="2.5" fill="currentColor"/>
<rect x="0" y="10.5" width="2.5" height="1.5" fill="currentColor"/>
<rect x="3.5" y="10.5" width="2.5" height="1.5" fill="currentColor"/>
<rect x="7" y="10.5" width="2.5" height="1.5" fill="currentColor"/>
<rect x="10.5" y="10.5" width="1.5" height="1.5" fill="currentColor"/>
</svg>
