<svg width="16" height="16" viewBox="0 0 16 16" fill="none" xmlns="http://www.w3.org/2000/svg">
<path d="M12.0351 10.793C11.8838 11.1424 11.7048 11.464 11.4974 11.7597C11.2147 12.1627 10.9832 12.4418 10.8048 12.5967C10.5283 12.851 10.232 12.9812 9.91475 12.9886C9.68698 12.9886 9.41229 12.9238 9.09255 12.7924C8.77176 12.6615 8.47695 12.5967 8.20739 12.5967C7.92469 12.5967 7.62148 12.6615 7.29717 12.7924C6.97237 12.9238 6.71071 12.9924 6.51065 12.9991C6.2064 13.0121 5.90314 12.8782 5.60044 12.5967C5.40723 12.4282 5.16557 12.1393 4.87607 11.73C4.56547 11.293 4.3101 10.7862 4.11005 10.2085C3.8958 9.58443 3.78839 8.98013 3.78839 8.39508C3.78839 7.72492 3.9332 7.14691 4.22325 6.66254C4.45121 6.27348 4.75447 5.96658 5.13403 5.74128C5.51359 5.51597 5.9237 5.40116 6.36535 5.39382C6.60701 5.39382 6.92391 5.46857 7.31773 5.61548C7.71043 5.76288 7.96259 5.83763 8.07314 5.83763C8.15579 5.83763 8.4359 5.75023 8.91077 5.57597C9.35983 5.41437 9.73883 5.34746 10.0493 5.37382C10.8906 5.44172 11.5227 5.77337 11.9431 6.37089C11.1906 6.8268 10.8184 7.46536 10.8258 8.28453C10.8326 8.9226 11.0641 9.45357 11.519 9.87516C11.7252 10.0708 11.9554 10.2221 12.2116 10.3295C12.156 10.4906 12.0974 10.6449 12.0351 10.793ZM10.1055 3.20006C10.1055 3.70017 9.92277 4.16713 9.55859 4.59933C9.11909 5.11315 8.5875 5.41005 8.01104 5.3632C8.0037 5.3032 7.99944 5.24006 7.99944 5.1737C7.99944 4.69359 8.20844 4.17978 8.5796 3.75967C8.76491 3.54696 9.00058 3.37009 9.28637 3.22901C9.57155 3.09002 9.84129 3.01316 10.095 3C10.1024 3.06686 10.1055 3.13372 10.1055 3.20006Z" fill="black"/>
</svg>
