<svg width="12" height="14" viewBox="0 0 12 14" fill="none" xmlns="http://www.w3.org/2000/svg">
<path d="M9.87 7.12C9.85 5.38 11.27 4.56 11.34 4.51C10.5 3.31 9.21 3.14 8.77 3.13C7.65 3.01 6.57 3.8 6 3.8C5.42 3.8 4.52 3.14 3.58 3.16C2.36 3.18 1.22 3.88 0.6 4.97C-0.68 7.18 0.28 10.44 1.51 12.23C2.13 13.1 2.85 14.09 3.79 14.06C4.7 14.02 5.05 13.47 6.15 13.47C7.24 13.47 7.56 14.06 8.52 14.03C9.5 14.01 10.12 13.15 10.71 12.27C11.42 11.26 11.7 10.28 11.71 10.23C11.69 10.22 9.89 9.52 9.87 7.12Z" fill="currentColor"/>
<path d="M8.15 2.06C8.65 1.45 9 0.62 8.91 0C8.18 0.03 7.29 0.49 6.77 1.08C6.31 1.61 5.88 2.47 5.99 3.08C6.79 3.14 7.63 2.66 8.15 2.06Z" fill="currentColor"/>
</svg>
