<svg width="16" height="16" viewBox="0 0 16 16" fill="none" xmlns="http://www.w3.org/2000/svg">
<path d="M8.00001 8.56915C8.71876 8.56915 9.36524 8.67853 9.93946 8.89728C10.5137 9.11212 11.0039 9.39142 11.4102 9.73517C11.8203 10.0789 12.0434 10.4012 12.2583 10.7957C12.3903 11.0383 12.5357 11.3646 12.6249 11.756C12.6779 11.9885 12.7133 12.2215 12.7133 12.7234H3.28666C3.28666 12.2215 3.32208 11.9885 3.37507 11.756C3.46425 11.3646 3.6096 11.0383 3.74169 10.7957C3.95654 10.4012 4.17962 10.0789 4.58978 9.73517C4.99603 9.39142 5.48626 9.11212 6.06048 8.89728C6.6347 8.67853 7.28126 8.56915 8.00001 8.56915Z" fill="#1E1E1E"/>
<path d="M8.00291 7.71044C7.60056 7.71044 7.22947 7.61191 6.88963 7.41484C6.55369 7.2142 6.28416 6.94369 6.08103 6.60331C5.87791 6.26293 5.77634 5.88314 5.77634 5.46394C5.77634 5.04832 5.87791 4.67569 6.08103 4.34607C6.28416 4.01285 6.55564 3.74951 6.89548 3.55603C7.23533 3.35897 7.60447 3.26044 8.00291 3.26044C8.40134 3.26044 8.76853 3.35718 9.10447 3.55065C9.44041 3.74055 9.70994 4.0021 9.91306 4.33532C10.1201 4.66495 10.2236 5.03757 10.2236 5.45319C10.2236 5.87598 10.1201 6.25935 9.91306 6.60331C9.70994 6.94369 9.44041 7.2142 9.10447 7.41484C8.76853 7.61191 8.40134 7.71044 8.00291 7.71044Z" fill="#1E1E1E"/>
</svg>
