<svg width="16" height="16" viewBox="0 0 16 16" fill="none" xmlns="http://www.w3.org/2000/svg">
<path d="M9.11131 4.50523C8.89226 4.50523 8.69548 4.45325 8.52098 4.3493C8.34648 4.24163 8.20539 4.10054 8.09772 3.92604C7.99377 3.75154 7.94179 3.55662 7.94179 3.34128C7.94179 3.12594 7.99377 2.93102 8.09772 2.75652C8.20539 2.5783 8.34648 2.43722 8.52098 2.33326C8.69548 2.2293 8.89226 2.17732 9.11131 2.17732C9.32665 2.17732 9.52157 2.2293 9.69607 2.33326C9.87057 2.43722 10.0098 2.5783 10.1138 2.75652C10.2214 2.93102 10.2753 3.12594 10.2753 3.34128C10.2753 3.55662 10.2214 3.75154 10.1138 3.92604C10.0098 4.10054 9.87057 4.24163 9.69607 4.3493C9.52157 4.45325 9.32665 4.50523 9.11131 4.50523ZM7.29019 9.12207C7.13797 9.03668 6.98389 8.94386 6.82795 8.84361C6.67202 8.73965 6.55692 8.60228 6.48267 8.43149C6.40841 8.25699 6.41584 8.01938 6.50494 7.71864L6.9282 6.19269C6.9579 6.09616 6.94305 6.0219 6.88365 5.96992C6.82424 5.91794 6.7537 5.89567 6.67202 5.90309L5.93132 5.95322L5.70855 7.49031C5.66029 7.83559 5.48022 7.99524 5.16834 7.96925C5.01983 7.9544 4.90659 7.89314 4.82862 7.78547C4.75066 7.67409 4.72281 7.53486 4.74509 7.36778L5.00127 5.47984C5.01983 5.3239 5.07738 5.19952 5.17391 5.1067C5.27044 5.01388 5.39482 4.9619 5.54705 4.95077L7.40715 4.82268C7.89723 4.78555 8.30193 4.83753 8.62123 4.97861C8.94052 5.11598 9.22084 5.34989 9.46217 5.68033L10.3755 6.94453L11.701 6.3542C11.8495 6.28737 11.985 6.27251 12.1075 6.30964C12.2338 6.34677 12.3284 6.43402 12.3915 6.57139C12.4584 6.70877 12.4658 6.83871 12.4138 6.96123C12.3618 7.08376 12.2597 7.17843 12.1075 7.24526L10.4256 7.9971C10.3143 8.04908 10.1992 8.05836 10.0803 8.02495C9.96525 7.99153 9.87429 7.92284 9.80746 7.81889L9.21713 6.9668C9.16143 6.88512 9.09089 6.84985 9.0055 6.86099C8.9201 6.87213 8.86441 6.92596 8.83842 7.0225L8.44301 8.38137L10.4312 9.68456C10.5834 9.7848 10.6688 9.9296 10.6874 10.119C10.7059 10.3083 10.6503 10.4568 10.5203 10.5645L8.69362 12.1183C8.54511 12.2445 8.3966 12.3021 8.24809 12.2909C8.10329 12.2835 7.98634 12.2297 7.89723 12.1294C7.81184 12.0292 7.77286 11.9085 7.78028 11.7674C7.78771 11.6226 7.86382 11.4908 8.00862 11.372L9.30066 10.2526L7.29019 9.12207ZM3.73707 13.6999C3.6294 13.6034 3.56814 13.4772 3.55329 13.3212C3.54215 13.1653 3.60712 13.0186 3.74821 12.8813L5.53034 11.1103L6.15409 8.89373C6.25062 9.01997 6.37128 9.13878 6.51608 9.25016C6.66088 9.35783 6.83352 9.46736 7.03401 9.57874L7.2178 9.68456L6.50494 11.5224C6.46039 11.6338 6.42326 11.7117 6.39356 11.7563C6.36386 11.7971 6.31188 11.8547 6.23762 11.9289L4.51675 13.6275C4.38309 13.7575 4.24572 13.8224 4.10463 13.8224C3.96355 13.8262 3.84103 13.7853 3.73707 13.6999Z" fill="currentColor"/>
</svg>

