<svg width="16" height="16" viewBox="0 0 16 16" fill="none" xmlns="http://www.w3.org/2000/svg">
<path d="M6.87775 12.5554C7.08028 12.6051 7.28795 12.6416 7.49983 12.664V11.8571C7.2467 11.5176 7.00708 11.1483 6.79982 10.753C6.49693 10.8285 6.20261 10.9278 5.9183 11.0454C6.19879 11.6048 6.53384 12.111 6.87775 12.5554Z" fill="#1E1E1E"/>
<path d="M5.19187 8.49193C5.23389 9.09581 5.36568 9.66767 5.55639 10.2017C5.83545 10.0858 6.12511 9.9844 6.42434 9.90232C6.26416 9.4557 6.15312 8.98405 6.11253 8.49193H5.19187Z" fill="#1E1E1E"/>
<path d="M6.87775 3.42868C7.08028 3.37904 7.28795 3.34252 7.49983 3.3201V4.12696C7.2467 4.46645 7.00708 4.83584 6.79982 5.23109C6.49693 5.15561 6.20261 5.05627 5.9183 4.93873C6.19879 4.37926 6.53384 3.87306 6.87775 3.42868Z" fill="#1E1E1E"/>
<path d="M5.19187 7.49217C5.23389 6.88828 5.36568 6.31643 5.55639 5.7824C5.83545 5.89834 6.12511 5.9997 6.42434 6.08178C6.26416 6.52839 6.15312 7.00004 6.11253 7.49217H5.19187Z" fill="#1E1E1E"/>
<path d="M2.30171 7.99205H3.30171C3.30172 7.82319 3.31063 7.65642 3.32801 7.49217C3.42195 6.60422 3.76325 5.79004 4.28172 5.11985C3.98894 4.93686 3.71427 4.74365 3.45958 4.54857C2.73299 5.50512 2.30174 6.69824 2.30171 7.99205Z" fill="#1E1E1E"/>
<path d="M2.30171 7.99205C2.30174 9.28585 2.73299 10.479 3.45958 11.4355C3.71427 11.2404 3.98894 11.0472 4.28172 10.8642C3.76325 10.1941 3.42195 9.37987 3.32801 8.49193C3.31063 8.32768 3.30172 8.1609 3.30171 7.99205H2.30171Z" fill="#1E1E1E"/>
<path d="M9.12215 12.5552C8.91963 12.6048 8.71196 12.6414 8.50008 12.6638V11.8569C8.75321 11.5174 8.99283 11.148 9.20009 10.7528C9.50298 10.8283 9.7973 10.9276 10.0816 11.0452C9.80112 11.6046 9.46607 12.1108 9.12215 12.5552Z" fill="#1E1E1E"/>
<path d="M10.808 8.49171C10.766 9.0956 10.6342 9.66745 10.4435 10.2015C10.1645 10.0855 9.87479 9.98418 9.57557 9.90211C9.73575 9.45549 9.84678 8.98384 9.88738 8.49171H10.808Z" fill="#1E1E1E"/>
<path d="M9.12215 3.42847C8.91963 3.37883 8.71196 3.34231 8.50008 3.31989V4.12675C8.75321 4.46624 8.99283 4.83563 9.20009 5.23088C9.50298 5.1554 9.7973 5.05606 10.0816 4.93852C9.80112 4.37905 9.46607 3.87284 9.12215 3.42847Z" fill="#1E1E1E"/>
<path d="M10.808 7.49196C10.766 6.88807 10.6342 6.31622 10.4435 5.78218C10.1645 5.89813 9.87479 5.99949 9.57557 6.08156C9.73575 6.52818 9.84678 6.99983 9.88738 7.49196H10.808Z" fill="#1E1E1E"/>
<path d="M13.6982 7.99205L12.6982 7.99184C12.6982 7.82298 12.6893 7.65621 12.6719 7.49196C12.578 6.60401 12.2367 5.78983 11.7182 5.11964C12.011 4.93665 12.2856 4.74344 12.5403 4.54836C13.2669 5.5049 13.6982 6.69824 13.6982 7.99205Z" fill="#1E1E1E"/>
<path d="M13.6982 7.99205C13.6982 9.28585 13.2669 10.4788 12.5403 11.4353C12.2856 11.2402 12.011 11.047 11.7182 10.864C12.2367 10.1938 12.578 9.37966 12.6719 8.49171C12.6893 8.32746 12.6982 8.16069 12.6982 7.99184L13.6982 7.99205Z" fill="#1E1E1E"/>
<path d="M6.872 13.5787C7.2366 13.6519 7.61379 13.6903 7.99995 13.6903V12.6903C7.83102 12.6903 7.66416 12.6814 7.49983 12.664C7.28795 12.6416 7.08028 12.6051 6.87775 12.5554C6.14481 12.3758 5.47939 12.0241 4.9267 11.5457C4.62544 11.7252 4.3403 11.9201 4.0736 12.1216C4.83631 12.847 5.79974 13.3633 6.872 13.5787Z" fill="#1E1E1E"/>
<path d="M3.45958 11.4355C3.64564 11.6805 3.85108 11.9099 4.0736 12.1216C4.3403 11.9201 4.62544 11.7252 4.9267 11.5457C4.68981 11.3407 4.47363 11.1123 4.28172 10.8642C3.98894 11.0472 3.71427 11.2404 3.45958 11.4355Z" fill="#1E1E1E"/>
<path d="M4.9267 11.5457C5.24061 11.3587 5.57202 11.1885 5.9183 11.0454C5.78333 10.7762 5.661 10.4946 5.55639 10.2017C5.10182 10.3906 4.6754 10.6182 4.28172 10.8642C4.47363 11.1123 4.68981 11.3407 4.9267 11.5457Z" fill="#1E1E1E"/>
<path d="M5.9183 11.0454C6.20261 10.9278 6.49693 10.8285 6.79982 10.753C6.65732 10.4812 6.53011 10.1972 6.42434 9.90232C6.12511 9.9844 5.83545 10.0858 5.55639 10.2017C5.661 10.4946 5.78333 10.7762 5.9183 11.0454Z" fill="#1E1E1E"/>
<path d="M6.79982 10.753C7.02849 10.696 7.26203 10.6526 7.49983 10.6253V9.70209C7.12963 9.73818 6.77058 9.80734 6.42434 9.90232C6.53011 10.1972 6.65732 10.4812 6.79982 10.753Z" fill="#1E1E1E"/>
<path d="M7.49983 12.664C7.66416 12.6814 7.83102 12.6903 7.99995 12.6903V7.99205H3.30171C3.30172 8.1609 3.31063 8.32768 3.32801 8.49193H5.19187H6.11253H7.49983V9.70209V10.6253V11.8571V12.664Z" fill="#1E1E1E"/>
<path d="M7.99995 12.6903C8.16889 12.6903 8.33575 12.6812 8.50008 12.6638V11.8569V10.6251V9.70188V8.49171H9.88738H10.808H12.6719C12.6893 8.32746 12.6982 8.16069 12.6982 7.99184L7.99995 7.99205V12.6903Z" fill="#1E1E1E"/>
<path d="M8.50008 10.6251C8.73788 10.6524 8.97142 10.6958 9.20009 10.7528C9.34259 10.481 9.4698 10.197 9.57557 9.90211C9.22932 9.80713 8.87028 9.73797 8.50008 9.70188V10.6251Z" fill="#1E1E1E"/>
<path d="M9.20009 10.7528C9.50298 10.8283 9.7973 10.9276 10.0816 11.0452C10.2166 10.7759 10.3389 10.4944 10.4435 10.2015C10.1645 10.0855 9.87479 9.98418 9.57557 9.90211C9.4698 10.197 9.34259 10.481 9.20009 10.7528Z" fill="#1E1E1E"/>
<path d="M10.0816 11.0452C10.4279 11.1883 10.7593 11.3585 11.0732 11.5455C11.3101 11.3404 11.5263 11.1121 11.7182 10.864C11.3245 10.618 10.8981 10.3904 10.4435 10.2015C10.3389 10.4944 10.2166 10.7759 10.0816 11.0452Z" fill="#1E1E1E"/>
<path d="M11.9263 12.1214C12.1488 11.9097 12.3543 11.6803 12.5403 11.4353C12.2856 11.2402 12.011 11.047 11.7182 10.864C11.5263 11.1121 11.3101 11.3404 11.0732 11.5455C11.3745 11.725 11.6596 11.9199 11.9263 12.1214Z" fill="#1E1E1E"/>
<path d="M7.99995 13.6903C8.38611 13.6903 8.7633 13.6517 9.12791 13.5784C10.2002 13.3631 11.1636 12.8468 11.9263 12.1214C11.6596 11.9199 11.3745 11.725 11.0732 11.5455C10.5205 12.0239 9.8551 12.3756 9.12215 12.5552C8.91963 12.6048 8.71196 12.6414 8.50008 12.6638C8.33575 12.6812 8.16889 12.6903 7.99995 12.6903V13.6903Z" fill="#1E1E1E"/>
<path d="M9.20009 5.23088C8.97142 5.28786 8.73788 5.33124 8.50008 5.3586V6.28179C8.87028 6.24571 9.22932 6.17654 9.57557 6.08156C9.4698 5.78665 9.34259 5.50265 9.20009 5.23088Z" fill="#1E1E1E"/>
<path d="M7.49983 5.35882C7.26203 5.33145 7.02849 5.28807 6.79982 5.23109C6.65732 5.50286 6.53011 5.78686 6.42434 6.08178C6.77058 6.17675 7.12963 6.24592 7.49983 6.282V5.35882Z" fill="#1E1E1E"/>
<path d="M6.79982 5.23109C6.49693 5.15561 6.20261 5.05627 5.9183 4.93873C5.78333 5.20794 5.661 5.48948 5.55639 5.7824C5.83545 5.89834 6.12511 5.9997 6.42434 6.08178C6.53011 5.78686 6.65732 5.50286 6.79982 5.23109Z" fill="#1E1E1E"/>
<path d="M5.9183 4.93873C5.57202 4.79556 5.24061 4.62538 4.9267 4.43838C4.68981 4.64343 4.47363 4.87178 4.28172 5.11985C4.6754 5.36592 5.10182 5.59352 5.55639 5.7824C5.661 5.48948 5.78333 5.20794 5.9183 4.93873Z" fill="#1E1E1E"/>
<path d="M4.0736 3.86253C3.85108 4.07417 3.64564 4.30362 3.45958 4.54857C3.71427 4.74365 3.98894 4.93686 4.28172 5.11985C4.47363 4.87178 4.68981 4.64343 4.9267 4.43838C4.62544 4.25892 4.3403 4.06396 4.0736 3.86253Z" fill="#1E1E1E"/>
<path d="M7.99995 2.29381C7.61379 2.29381 7.2366 2.33222 6.872 2.40544C5.79974 2.62077 4.83631 3.13711 4.0736 3.86253C4.3403 4.06396 4.62544 4.25892 4.9267 4.43838C5.47939 3.95997 6.14481 3.60833 6.87775 3.42868C7.08028 3.37904 7.28795 3.34252 7.49983 3.3201C7.66416 3.30271 7.83102 3.2938 7.99995 3.2938V2.29381Z" fill="#1E1E1E"/>
<path d="M7.99995 3.2938C7.83102 3.2938 7.66416 3.30271 7.49983 3.3201V4.12696V5.35882V6.282V7.49217H6.11253H5.19187H3.32801C3.31063 7.65642 3.30172 7.82319 3.30171 7.99205H7.99995V3.2938Z" fill="#1E1E1E"/>
<path d="M8.50008 3.31989C8.33575 3.3025 8.16889 3.2938 7.99995 3.2938V7.99205L12.6982 7.99184C12.6982 7.82298 12.6893 7.65621 12.6719 7.49196H10.808H9.88738H8.50008V6.28179V5.3586V4.12675V3.31989Z" fill="#1E1E1E"/>
<path d="M9.12791 2.40523C8.7633 2.33201 8.38611 2.29381 7.99995 2.29381V3.2938C8.16889 3.2938 8.33575 3.3025 8.50008 3.31989C8.71196 3.34231 8.91963 3.37883 9.12215 3.42847C9.8551 3.60812 10.5205 3.95976 11.0732 4.43817C11.3745 4.25871 11.6596 4.06375 11.9263 3.86232C11.1636 3.13689 10.2002 2.62056 9.12791 2.40523Z" fill="#1E1E1E"/>
<path d="M10.0816 4.93852C9.7973 5.05606 9.50298 5.1554 9.20009 5.23088C9.34259 5.50265 9.4698 5.78665 9.57557 6.08156C9.87479 5.99949 10.1645 5.89813 10.4435 5.78218C10.3389 5.48926 10.2166 5.20772 10.0816 4.93852Z" fill="#1E1E1E"/>
<path d="M11.0732 4.43817C10.7593 4.62517 10.4279 4.79535 10.0816 4.93852C10.2166 5.20772 10.3389 5.48926 10.4435 5.78218C10.8981 5.5933 11.3245 5.3657 11.7182 5.11964C11.5263 4.87157 11.3101 4.64322 11.0732 4.43817Z" fill="#1E1E1E"/>
<path d="M12.5403 4.54836C12.3543 4.3034 12.1488 4.07396 11.9263 3.86232C11.6596 4.06375 11.3745 4.25871 11.0732 4.43817C11.3101 4.64322 11.5263 4.87157 11.7182 5.11964C12.011 4.93665 12.2856 4.74344 12.5403 4.54836Z" fill="#1E1E1E"/>
</svg>
