<svg width="12" height="12" viewBox="0 0 12 12" fill="none" xmlns="http://www.w3.org/2000/svg">
<path d="M11.82 6.13C11.82 5.72 11.79 5.32 11.71 4.93H6.12V7.2H9.31C9.18 7.91 8.78 8.52 8.18 8.92V10.4H10.08C11.19 9.38 11.82 7.9 11.82 6.13Z" fill="currentColor"/>
<path d="M6.12 11.82C7.76 11.82 9.15 11.28 10.08 10.4L8.18 8.92C7.67 9.27 7.01 9.47 6.12 9.47C4.54 9.47 3.2 8.44 2.76 7.05H0.81V8.58C1.76 10.46 3.8 11.82 6.12 11.82Z" fill="currentColor"/>
<path d="M2.76 7.05C2.63 6.65 2.55 6.23 2.55 5.79C2.55 5.35 2.63 4.93 2.76 4.53V3H0.81C0.29 4.02 0 5.17 0 6.41C0 7.65 0.29 8.8 0.81 9.82L2.76 7.05Z" fill="currentColor"/>
<path d="M6.12 2.12C7.08 2.12 7.95 2.45 8.63 3.1L10.13 1.6C9.15 0.69 7.76 0.18 6.12 0.18C3.8 0.18 1.76 1.54 0.81 3.42L2.76 4.95C3.2 3.56 4.54 2.53 6.12 2.53V2.12Z" fill="currentColor"/>
</svg>
