<svg width="16" height="16" viewBox="0 0 16 16" fill="none" xmlns="http://www.w3.org/2000/svg">
<path d="M13.0004 8.11502C13.0004 7.77514 12.9723 7.43342 12.9123 7.09904H8.10071V9.02447H10.8561C10.7418 9.64542 10.3744 10.1948 9.83641 10.5438V11.7932H11.4803C12.4456 10.9223 13.0004 9.63627 13.0004 8.11502Z" fill="#4285F4"/>
<path d="M8.10074 13.0001C9.47654 13.0001 10.6368 12.5573 11.4821 11.793L9.83829 10.5437C9.38094 10.8487 8.79049 11.0214 8.10259 11.0214C6.77176 11.0214 5.64336 10.1413 5.23849 8.95818H3.54215V10.2461C4.40813 11.9345 6.17195 13.0001 8.10074 13.0001Z" fill="#34A853"/>
<path d="M5.23681 8.95856C5.02313 8.33756 5.02313 7.66515 5.23681 7.04416V5.75627H3.54234C2.81882 7.1691 2.81863 8.83323 3.54215 10.2461L5.23681 8.95856Z" fill="#FBBC04"/>
<path d="M8.10074 4.97895C8.82799 4.96793 9.53089 5.23616 10.0576 5.72854L11.514 4.30101C10.5918 3.45222 9.36784 2.98556 8.10074 3.00026C6.17195 3.00026 4.40832 4.06603 3.54234 5.75627L5.23681 7.04416C5.63981 5.85915 6.76989 4.97895 8.10074 4.97895Z" fill="#EA4335"/>
</svg>
