<svg width="16" height="16" viewBox="0 0 16 16" fill="none" xmlns="http://www.w3.org/2000/svg">
<path d="M8.0716 12.8281C7.24826 12.8281 6.52893 12.6201 5.9136 12.2041C5.30693 11.7881 4.83893 11.2161 4.5096 10.4881C4.18893 9.7514 4.02859 8.9194 4.02859 7.99207C4.02859 7.0474 4.19326 6.21107 4.5226 5.48307C4.8606 4.7464 5.34593 4.1744 5.9786 3.76707C6.61993 3.35973 7.38693 3.15607 8.2796 3.15607C9.0596 3.15607 9.70093 3.30773 10.2036 3.61107C10.7149 3.9144 11.0919 4.2784 11.3346 4.70307C11.5859 5.11907 11.7419 5.53507 11.8026 5.95107L10.5806 6.12007C10.4939 5.6174 10.2643 5.17107 9.8916 4.78107C9.5276 4.39107 8.97726 4.19607 8.2406 4.19607C7.62526 4.19607 7.09226 4.3564 6.6416 4.67707C6.1996 4.99773 5.8616 5.44407 5.6276 6.01607C5.40226 6.58807 5.2896 7.25107 5.2896 8.00507C5.2896 9.12307 5.54093 10.0331 6.0436 10.7351C6.55493 11.4371 7.2916 11.7881 8.2536 11.7881C8.94693 11.7881 9.4886 11.6321 9.8786 11.3201C10.2686 10.9994 10.5286 10.6267 10.6586 10.2021C10.7973 9.7774 10.8666 9.37007 10.8666 8.98007V8.82407H8.1626V7.78407H11.9716V12.6071H11.0746L10.9056 11.1251C10.6976 11.6364 10.3423 12.0481 9.8396 12.3601C9.33693 12.6721 8.7476 12.8281 8.0716 12.8281Z" fill="#1E1E1E"/>
</svg>