<svg width="16" height="16" viewBox="0 0 16 16" fill="none" xmlns="http://www.w3.org/2000/svg">
<path d="M12.0037 1.96826L12.0037 7.12486L14.9023 4.21328L15.6096 4.92061L11.4984 9.03184L7.39064 4.92409L8.08449 4.21727L10.9917 7.12449L10.9931 2.98673L5.00853 3.00323V1.98475L12.0037 1.96826Z" fill="#1E1E1E"/>
<path d="M3.99657 14.0318L3.99657 8.87523L1.09796 11.7868L0.390625 11.0795L4.50185 6.96825L8.6096 11.076L7.91576 11.7828L5.00853 8.8756L5.00714 13.0134L10.9917 12.9972V14.0157L3.99657 14.0318Z" fill="#1E1E1E"/>
<path d="M10.9917 12.9972V14.0157H12.0037V12.9973V9.85949L10.9917 9.85912V12.9972Z" fill="#1E1E1E"/>
<path d="M3.99657 5.1225V6.14098H5.00853V5.12251V1.98475L3.99657 1.98438V5.1225Z" fill="#1E1E1E"/>
</svg>
