<svg width="16" height="16" viewBox="0 0 16 16" fill="none" xmlns="http://www.w3.org/2000/svg">
<path d="M12.0098 8.4352C12.0098 6.22054 10.2147 4.42544 8 4.42544V5.44497C9.65133 5.44497 10.9902 6.78387 10.9902 8.4352C10.9902 10.0865 9.65133 11.4254 8 11.4254C6.34867 11.4254 5.00977 10.0865 5.00977 8.4352H3.99023C3.99023 10.6499 5.78534 12.445 8 12.445C10.2147 12.445 12.0098 10.6499 12.0098 8.4352Z" fill="#1E1E1E"/>
<path d="M10.8353 5.59987C9.26933 4.03387 6.73067 4.03387 5.16467 5.59987L5.88559 6.32079C7.05325 5.15312 8.94675 5.15312 10.1144 6.32079C11.2821 7.48845 11.2821 9.38195 10.1144 10.5496C8.94675 11.7173 7.05325 11.7173 5.88559 10.5496L5.16467 11.2705C6.73067 12.8365 9.26933 12.8365 10.8353 11.2705C12.4013 9.70453 12.4013 7.16587 10.8353 5.59987Z" fill="#1E1E1E"/>
<path d="M5.15847 5.59315L5.8743 6.30846H7.93002V7.29888H4.16732V3.53894H5.16306L5.15847 5.59315Z" fill="#1E1E1E"/>
</svg>
