<svg width="16" height="16" viewBox="0 0 16 16" fill="none" xmlns="http://www.w3.org/2000/svg">
<path fill-rule="evenodd" clip-rule="evenodd" d="M5.48751 11.2972L10.4354 11.2964H5.49535L5.48751 11.2972Z" fill="currentColor"/>
<path fill-rule="evenodd" clip-rule="evenodd" d="M5.49535 13.0423C4.81691 13.0423 4.2588 12.5265 4.19152 11.8658L4.18468 4.00851C4.18468 3.42828 4.65521 2.95775 5.23544 2.95775H10.7646C11.3448 2.95775 11.8153 3.42829 11.8153 4.00851V10.4123C11.8153 10.7646 11.6092 11.0692 11.3109 11.2115V12.1689C11.5526 12.169 11.7527 12.3649 11.7527 12.6066C11.7527 12.8483 11.5526 13.0421 11.3109 13.0423H5.49535ZM5.06017 11.7316C5.06017 11.5214 5.20914 11.3456 5.40729 11.3049L5.48751 11.2972L5.49535 11.2964H10.4354V12.1668H5.49535L5.40729 12.1574C5.20923 12.1167 5.06023 11.9417 5.06017 11.7316ZM10.798 4.09446H5.20187V5.49349H10.798V4.09446Z" fill="currentColor"/>
</svg>

