<svg width="16" height="16" viewBox="0 0 16 16" fill="none" xmlns="http://www.w3.org/2000/svg">
<path d="M9.08545 6.62646C9.08545 5.25128 7.9704 4.13623 6.59521 4.13623C5.22003 4.13623 4.10498 5.25128 4.10498 6.62646C4.10498 8.00165 5.22003 9.1167 6.59521 9.1167C7.9704 9.1167 9.08545 8.00165 9.08545 6.62646ZM10.105 6.62646C10.105 7.39551 9.85647 8.10577 9.43701 8.68408L12.9146 12.1616L12.1929 12.8833L8.72412 9.41455C8.13339 9.86631 7.39632 10.1362 6.59521 10.1362C4.6567 10.1362 3.08545 8.56498 3.08545 6.62646C3.08545 4.68795 4.6567 3.1167 6.59521 3.1167C8.53373 3.1167 10.105 4.68795 10.105 6.62646Z" fill="#1E1E1E"/>
</svg>
