<svg width="16" height="16" viewBox="0 0 16 16" fill="none" xmlns="http://www.w3.org/2000/svg">
<path d="M8.07669 3.70416C10.1007 3.70416 11.795 4.74149 12.9566 5.73248C13.5418 6.23179 14.005 6.72991 14.3218 7.10358C14.4804 7.29069 14.6032 7.44763 14.687 7.55865C14.7289 7.61411 14.7615 7.65861 14.7837 7.68951C14.7947 7.70477 14.8031 7.71711 14.8091 7.72565C14.812 7.72971 14.8143 7.73297 14.8159 7.73541C14.8167 7.73644 14.8174 7.73762 14.8179 7.73834L14.8189 7.73932C14.819 7.73947 14.8195 7.74054 14.4409 8.00006L14.8189 8.25983L14.8179 8.2608C14.8174 8.2616 14.8168 8.26345 14.8159 8.26471C14.8142 8.26716 14.812 8.27042 14.8091 8.27448C14.8031 8.28303 14.7947 8.29531 14.7837 8.31061C14.7615 8.34152 14.7289 8.38597 14.687 8.44147C14.6032 8.5525 14.4805 8.70941 14.3218 8.89655C14.005 9.27021 13.5418 9.76835 12.9566 10.2676C11.795 11.2586 10.1006 12.296 8.07669 12.296C6.05499 12.296 4.32326 11.2606 3.12552 10.2725C2.52184 9.77448 2.04049 9.27717 1.7095 8.90436C1.54374 8.71764 1.4147 8.56095 1.32669 8.45026C1.28274 8.39498 1.24843 8.35111 1.22513 8.32037C1.21356 8.30511 1.20507 8.29275 1.19876 8.28424C1.19566 8.28005 1.19275 8.27694 1.19095 8.27448C1.19016 8.27341 1.18952 8.27227 1.189 8.27155L1.18802 8.27057V8.26959L0.99173 8.00006L1.18802 7.73053V7.72955L1.189 7.72858C1.18953 7.72784 1.19013 7.72676 1.19095 7.72565C1.19276 7.72318 1.19563 7.72011 1.19876 7.71588C1.20506 7.70738 1.21356 7.69502 1.22513 7.67975C1.24842 7.64902 1.28277 7.6051 1.32669 7.54987C1.4147 7.43918 1.54374 7.28248 1.7095 7.09576C2.04048 6.72296 2.52183 6.22565 3.12552 5.7276C4.32326 4.73948 6.05499 3.70417 8.07669 3.70416ZM8.07669 4.62213C6.36481 4.62213 4.83715 5.50531 3.7095 6.43561C3.15087 6.8965 2.70364 7.35865 2.39603 7.70514C2.29735 7.81629 2.21535 7.91722 2.147 8.00006C2.21534 8.08289 2.29738 8.18387 2.39603 8.29498C2.70365 8.64147 3.15087 9.10363 3.7095 9.56451C4.83715 10.4948 6.36481 11.378 8.07669 11.378C9.7862 11.378 11.2738 10.4968 12.3609 9.5694C12.9 9.10949 13.3285 8.64854 13.6216 8.3028C13.7189 8.18799 13.7987 8.0844 13.8648 8.00006C13.7987 7.91573 13.7189 7.81214 13.6216 7.69733C13.3285 7.35158 12.9 6.89064 12.3609 6.43073C11.2738 5.50334 9.78624 4.62213 8.07669 4.62213ZM14.9976 8.00006L14.8199 8.25983L14.4409 8.00006L14.8199 7.7403L14.9976 8.00006Z" fill="#1E1E1E"/>
<path d="M8.15292 5.66766C9.44109 5.66766 10.4858 6.71157 10.4859 7.99969C10.4859 9.28796 9.44119 10.3327 8.15292 10.3327C6.8648 10.3325 5.82089 9.28786 5.82089 7.99969C5.82106 6.71167 6.8649 5.66783 8.15292 5.66766Z" fill="#1E1E1E" stroke="#1E1E1E" stroke-width="0.81"/>
</svg>
