<svg width="16" height="16" viewBox="0 0 16 16" fill="none" xmlns="http://www.w3.org/2000/svg">
<path d="M8.51244 5.31893L8.50618 1.97758H7.4877L7.49396 5.31893L8.51244 5.31893Z" fill="#1E1E1E"/>
<path d="M10.2525 6.46416L12.6108 4.09704L11.8906 3.37687L9.53235 5.74399L10.2525 6.46416Z" fill="#1E1E1E"/>
<path d="M10.6731 8.50438L14.0145 8.49812V7.47965L10.6731 7.4859L10.6731 8.50438Z" fill="#1E1E1E"/>
<path d="M9.52792 10.2445L11.895 12.6027L12.6152 11.8826L10.2481 9.52429L9.52792 10.2445Z" fill="#1E1E1E"/>
<path d="M7.4877 10.6651L7.49396 14.0064H8.51243L8.50618 10.6651L7.4877 10.6651Z" fill="#1E1E1E"/>
<path d="M5.74762 9.51987L3.38935 11.887L4.10952 12.6072L6.46779 10.24L5.74762 9.51987Z" fill="#1E1E1E"/>
<path d="M5.32699 7.47965L1.98564 7.48591L1.98564 8.50438L5.32699 8.49812L5.32699 7.47965Z" fill="#1E1E1E"/>
<path d="M6.47222 5.73956L4.1051 3.3813L3.38493 4.10147L5.75204 6.45973L6.47222 5.73956Z" fill="#1E1E1E"/>
</svg>
