<svg width="16" height="16" viewBox="0 0 16 16" fill="none" xmlns="http://www.w3.org/2000/svg">
<path fill-rule="evenodd" clip-rule="evenodd" d="M8.0715 12.8292C7.24817 12.8292 6.52884 12.6212 5.9135 12.2052C5.30684 11.7892 4.83884 11.2172 4.5095 10.4892C4.18884 9.7525 4.0285 8.9205 4.0285 7.99317C4.0285 7.29763 4.11777 6.66082 4.2963 6.08274L5.34525 7.13254C5.30809 7.40874 5.2895 7.69995 5.2895 8.00617C5.2895 9.12417 5.54084 10.0342 6.0435 10.7362C6.55484 11.4382 7.2915 11.7892 8.2535 11.7892C8.8321 11.7892 9.30507 11.6805 9.67242 11.4632L10.2574 12.0487C10.1317 12.1621 9.99244 12.2662 9.8395 12.3612C9.33684 12.6732 8.7475 12.8292 8.0715 12.8292ZM5.72335 3.94748C5.80556 3.88453 5.89061 3.82476 5.9785 3.76817C6.61984 3.36084 7.38684 3.15717 8.2795 3.15717C9.0595 3.15717 9.70084 3.30884 10.2035 3.61217C10.7148 3.9155 11.0918 4.2795 11.3345 4.70417C11.5858 5.12017 11.7418 5.53617 11.8025 5.95217L10.5805 6.12117C10.4938 5.6185 10.2642 5.17217 9.8915 4.78217C9.5275 4.39217 8.97717 4.19717 8.2405 4.19717C7.62517 4.19717 7.09217 4.3575 6.6415 4.67817C6.60526 4.70447 6.56971 4.73161 6.53486 4.7596L5.72335 3.94748ZM11.9715 10.2003L10.8646 9.09263C10.8646 9.12962 10.8659 9.05532 10.8646 9.09263L10.8665 8.82517H10.5974L9.55815 7.78517H11.9715V10.2003Z" fill="#1E1E1E"/>
<path d="M3.81068 3.07916L3.09052 3.79933L12.4514 13.1638L13.1689 12.4463L3.81068 3.07916Z" fill="#1E1E1E"/>
</svg>