<svg width="16" height="16" viewBox="0 0 16 16" fill="none" xmlns="http://www.w3.org/2000/svg">
<path d="M4.52511 10.7843L4.52511 6.28572L3.52511 5.2851L3.52511 12.4913H10.7269L9.72748 11.4913H6.14327L8.53309 10.2962L7.78818 9.5508L6.55733 10.1661L7.4805 9.24293L6.77369 8.53569L4.52511 10.7843Z" fill="#1E1E1E"/>
<path fill-rule="evenodd" clip-rule="evenodd" d="M7.31174 7.99763L8.01844 8.705L8.50529 9.19232L9.24995 9.93768L10.8021 11.4913L11.8012 12.4913L12.4738 13.1646L12.4767 13.1617L13.1782 12.4603L13.194 12.4444L12.5251 11.7749L11.5251 10.774L10.21 9.45758L9.46543 8.71234L8.73861 7.98483L8.03191 7.27746L5.24837 4.4913L4.24932 3.4913L3.83573 3.07731L3.81838 3.09466L3.11694 3.7961L3.11556 3.79748L3.52511 4.20742L4.52511 5.20837L7.31174 7.99763ZM10.8074 11.4913L9.25314 9.93608L10.1882 9.46846L11.5251 10.8062V11.4913H10.8074Z" fill="#1E1E1E"/>
<path d="M9.25314 9.93608L10.8074 11.4913H11.5251V10.8062L10.1882 9.46846L9.25314 9.93608Z" fill="#1E1E1E"/>
<path fill-rule="evenodd" clip-rule="evenodd" d="M12.5251 10.7262V3.4913L5.2947 3.4913L6.29407 4.4913L10.8181 4.4913L8.55537 6.754L9.26218 7.46126L11.5251 5.19833V7.6827L10.1637 8.3633L10.9083 9.10837L11.5251 8.79989V9.72559L12.5251 10.7262ZM12.5251 11.8068L13.1782 12.4603L13.194 12.4444L12.5251 11.7749L11.5251 10.774L10.21 9.45758L9.46543 8.71234L8.73861 7.98483L8.03191 7.27746L5.24837 4.4913L4.24932 3.4913L3.83573 3.07731L3.81838 3.09466L4.21478 3.4913H3.52511V4.20451L3.11694 3.7961L3.11556 3.79748L3.52511 4.20742L4.52511 5.20837L7.31174 7.99763L8.01844 8.705L8.50529 9.19232L9.24995 9.93768L10.8021 11.4913L11.8012 12.4913L12.4738 13.1646L12.4767 13.1617L11.8068 12.4913H12.5251V11.8068ZM10.1882 9.46846L11.5251 10.8062V11.4913H10.8074L9.25314 9.93608L10.1882 9.46846ZM8.72205 8.00138L9.44352 8.7233L8.50832 9.1908L8.02063 8.70281L8.72205 8.00138ZM5.21415 4.4913L8.01524 7.29413L7.31382 7.99556L4.52511 5.20513V4.4913H5.21415Z" fill="#1E1E1E"/>
</svg>
