<svg width="16" height="16" viewBox="0 0 16 16" fill="none" xmlns="http://www.w3.org/2000/svg">
<path d="M12.4541 12.789L13.1743 12.0688L12.6027 11.4967L12.6 11.4994L12.0137 10.9144C11.7332 11.103 11.4336 11.283 11.1164 11.4457L11.4068 11.7363L11.4046 11.7385L12.4541 12.789Z" fill="#1E1E1E"/>
<path d="M5.96371 6.28857L9.79315 10.1213C10.0642 9.91923 10.2966 9.66816 10.4772 9.38122L6.69735 5.60959C6.41317 5.78931 6.16435 6.0199 5.96371 6.28857Z" fill="#1E1E1E"/>
<path fill-rule="evenodd" clip-rule="evenodd" d="M3.68238 4.00893L3.09583 3.42183L3.79957 2.7181L3.816 2.70167L5.35651 4.24363L6.05746 4.94524L6.712 5.6004L10.4818 9.3738L11.3559 10.2487L12.0181 10.9115L12.6027 11.4967L12.6 11.4994L12.0137 10.9144C11.7332 11.103 11.4336 11.283 11.1164 11.4457L11.4068 11.7363L11.4046 11.7385L11.1136 11.4472L10.4275 10.7604L9.79075 10.1231L5.96207 6.29078L5.08276 5.41064L4.4124 4.73965L3.68238 4.00893ZM12.6382 10.4584C12.7502 10.37 12.8582 10.2812 12.9619 10.1927C13.5472 9.69339 14.0104 9.19525 14.3271 8.82158C14.4858 8.63445 14.6085 8.47754 14.6924 8.36651C14.7343 8.31101 14.7669 8.26656 14.7891 8.23565L14.7965 8.22527L14.8089 8.20741L14.8145 8.19951L14.8213 8.18975C14.8218 8.18905 14.8222 8.18816 14.8225 8.18737L14.8232 8.18584L14.8242 8.18487L15.0029 7.9251L14.8252 7.66533L14.4463 7.9251C14.8248 7.66558 14.8243 7.66451 14.8242 7.66436L14.8232 7.66338L14.8213 7.66045L14.8145 7.65069C14.8085 7.64215 14.8 7.62981 14.7891 7.61455C14.7669 7.58365 14.7343 7.53915 14.6924 7.48369C14.6085 7.37267 14.4858 7.21573 14.3271 7.02862C14.0104 6.65495 13.5472 6.15682 12.9619 5.65752C11.8003 4.66652 10.106 3.6292 8.08203 3.6292C7.38933 3.6292 6.73067 3.75074 6.11587 3.95029L6.86093 4.69373C7.25481 4.60011 7.6629 4.54717 8.08203 4.54717C9.79158 4.54717 11.2792 5.42838 12.3662 6.35576C12.9053 6.81567 13.3338 7.27662 13.627 7.62237C13.7119 7.72259 13.7835 7.81425 13.8443 7.89203L13.8701 7.9251L13.8442 7.95828C13.7834 8.03603 13.7119 8.12766 13.627 8.22783C13.3338 8.57358 12.9053 9.03452 12.3662 9.49444C12.2436 9.599 12.116 9.70298 11.9835 9.80517L12.6382 10.4584ZM5.58478 6.99004L9.09135 10.4996C8.80023 10.6051 8.48611 10.6626 8.15857 10.6626C6.64663 10.6626 5.42096 9.43698 5.42096 7.92504C5.42096 7.59666 5.47878 7.28179 5.58478 6.99004ZM10.371 11.7804L9.65051 11.0593C9.15436 11.2126 8.62958 11.303 8.08203 11.303C6.37015 11.303 4.84249 10.4199 3.71484 9.48955C3.15622 9.02867 2.70899 8.56651 2.40137 8.22002C2.31556 8.12337 2.24231 8.03438 2.17972 7.95834L2.15234 7.9251L2.17972 7.89186C2.24231 7.81582 2.31553 7.72686 2.40137 7.63018C2.70898 7.28369 3.15621 6.82154 3.71484 6.36065C3.93564 6.17849 4.17177 5.99814 4.42162 5.82588L3.76309 5.16678C3.53867 5.32681 3.32756 5.49036 3.13086 5.65264C2.52717 6.15069 2.04582 6.648 1.71484 7.0208C1.54908 7.20752 1.42004 7.36421 1.33203 7.4749C1.28811 7.53014 1.25376 7.57406 1.23047 7.60479C1.22314 7.61446 1.21704 7.62297 1.21196 7.63006L1.2041 7.64092C1.20236 7.64328 1.20069 7.64527 1.19925 7.647L1.19629 7.65069L1.19434 7.65362L1.19336 7.65557L0.99707 7.9251L1.19336 8.19561L1.19434 8.19658L1.19629 8.19951L1.19926 8.20322C1.20071 8.20495 1.20238 8.20695 1.2041 8.20928L1.21195 8.22013C1.21704 8.22723 1.22314 8.23575 1.23047 8.24541C1.25377 8.27615 1.28809 8.32002 1.33203 8.3753C1.42004 8.48598 1.54908 8.64268 1.71484 8.8294C2.04583 9.20221 2.52718 9.69952 3.13086 10.1976C4.3286 11.1857 6.06033 12.221 8.08203 12.221C8.90391 12.221 9.67144 12.0499 10.371 11.7804ZM10.8048 8.62904C10.8644 8.4044 10.8962 8.16843 10.8962 7.92504C10.8962 6.4131 9.6705 5.18743 8.15857 5.18743C7.91309 5.18743 7.67517 5.21974 7.44881 5.28033L10.8048 8.62904ZM9.79315 10.1213L5.96371 6.28857C6.16435 6.0199 6.41317 5.78931 6.69735 5.60959L10.4772 9.38122C10.2966 9.66816 10.0642 9.91923 9.79315 10.1213Z" fill="#1E1E1E"/>
</svg>
