<svg width="16" height="16" viewBox="0 0 16 16" fill="none" xmlns="http://www.w3.org/2000/svg">
<path d="M3.76358 3.06275L3.06079 3.76553L4.35081 5.05677L4.35297 5.05461L7.35278 8.05725V6.65465L5.08414 4.38431H4.45378V3.75347L3.76358 3.06275Z" fill="#1E1E1E"/>
<path d="M12.4191 13.1326L13.1232 12.4403L11.9204 11.2257L8.58778 7.89058V9.29342L11.3717 12.0799L11.3695 12.0821L12.4191 13.1326Z" fill="#1E1E1E"/>
<path fill-rule="evenodd" clip-rule="evenodd" d="M6.16399 4.38431L5.12477 3.34431H11.4868V4.38431H8.58778V6.80992L7.35278 5.57399V4.38431H6.16399ZM7.35278 9.13802V12.5743H8.58778V10.3742L7.35278 9.13802Z" fill="#1E1E1E"/>
<path d="M8.58778 7.89058L7.35278 6.65465V8.05725L8.58778 9.29342V7.89058Z" fill="#1E1E1E"/>
<path d="M4.45378 3.75347V4.38431H5.08414L4.45378 3.75347Z" fill="#1E1E1E"/>
</svg>
