<svg width="16" height="16" viewBox="0 0 16 16" fill="none" xmlns="http://www.w3.org/2000/svg">
<path fill-rule="evenodd" clip-rule="evenodd" d="M13.8153 4.78289C13.8153 4.20267 13.3448 3.73213 12.7646 3.73213H8H3.23544C2.65521 3.73213 2.18468 4.20267 2.18468 4.78289V7.31419H13.8153L13.8153 4.78289ZM2.18468 8V11.2171C2.18468 11.7973 2.65521 12.2679 3.23544 12.2679H12.7646C13.3448 12.2679 13.8153 11.7973 13.8153 11.2171L13.8153 8L9.33239 7.98014V8.63222C9.33239 8.92233 9.09712 9.1576 8.807 9.1576H8H7.19299C6.90287 9.1576 6.66761 8.92233 6.66761 8.63222V7.98014L2.18468 8Z" fill="currentColor"/>
</svg>

